<svg width="38" height="38" viewBox="0 0 38 38" fill="none" xmlns="http://www.w3.org/2000/svg">
<path fill-rule="evenodd" clip-rule="evenodd" d="M35.625 19C35.625 23.4092 33.8734 27.6379 30.7557 30.7556C27.6379 33.8734 23.4092 35.625 19 35.625C14.5908 35.625 10.3621 33.8734 7.24435 30.7556C4.12656 27.6379 2.375 23.4092 2.375 19C2.375 14.5908 4.12656 10.3621 7.24435 7.24435C10.3621 4.12656 14.5908 2.375 19 2.375C23.4092 2.375 27.6379 4.12656 30.7557 7.24435C33.8734 10.3621 35.625 14.5908 35.625 19ZM0 19C0 24.0391 2.00178 28.8718 5.56497 32.435C9.12816 35.9982 13.9609 38 19 38C24.0391 38 28.8718 35.9982 32.435 32.435C35.9982 28.8718 38 24.0391 38 19C38 13.9609 35.9982 9.12816 32.435 5.56497C28.8718 2.00178 24.0391 0 19 0C13.9609 0 9.12816 2.00178 5.56497 5.56497C2.00178 9.12816 0 13.9609 0 19ZM27.3125 17.8125C27.6274 17.8125 27.9295 17.9376 28.1522 18.1603C28.3749 18.383 28.5 18.6851 28.5 19C28.5 19.3149 28.3749 19.617 28.1522 19.8397C27.9295 20.0624 27.6274 20.1875 27.3125 20.1875H13.5541L18.6532 25.2843C18.7637 25.3947 18.8512 25.5257 18.911 25.67C18.9707 25.8142 19.0015 25.9689 19.0015 26.125C19.0015 26.2811 18.9707 26.4358 18.911 26.58C18.8512 26.7243 18.7637 26.8553 18.6532 26.9657C18.5428 27.0762 18.4118 27.1637 18.2675 27.2235C18.1233 27.2832 17.9686 27.314 17.8125 27.314C17.6564 27.314 17.5017 27.2832 17.3575 27.2235C17.2132 27.1637 17.0822 27.0762 16.9718 26.9657L9.84675 19.8407C9.73616 19.7304 9.64842 19.5994 9.58856 19.4551C9.52869 19.3109 9.49788 19.1562 9.49788 19C9.49788 18.8438 9.52869 18.6891 9.58856 18.5449C9.64842 18.4006 9.73616 18.2696 9.84675 18.1593L16.9718 11.0343C17.0822 10.9238 17.2132 10.8363 17.3575 10.7765C17.5017 10.7168 17.6564 10.686 17.8125 10.686C17.9686 10.686 18.1233 10.7168 18.2675 10.7765C18.4118 10.8363 18.5428 10.9238 18.6532 11.0343C18.7637 11.1447 18.8512 11.2757 18.911 11.42C18.9707 11.5642 19.0015 11.7189 19.0015 11.875C19.0015 12.0311 18.9707 12.1858 18.911 12.33C18.8512 12.4743 18.7637 12.6053 18.6532 12.7157L13.5541 17.8125H27.3125Z" fill="black"/>
</svg>
