<svg width="38" height="38" viewBox="0 0 38 38" fill="none" xmlns="http://www.w3.org/2000/svg">
<path fill-rule="evenodd" clip-rule="evenodd" d="M2.375 19C2.375 23.4092 4.12656 27.6379 7.24435 30.7556C10.3621 33.8734 14.5908 35.625 19 35.625C23.4092 35.625 27.6379 33.8734 30.7556 30.7556C33.8734 27.6379 35.625 23.4092 35.625 19C35.625 14.5908 33.8734 10.3621 30.7556 7.24435C27.6379 4.12656 23.4092 2.375 19 2.375C14.5908 2.375 10.3621 4.12656 7.24435 7.24435C4.12656 10.3621 2.375 14.5908 2.375 19ZM38 19C38 24.0391 35.9982 28.8718 32.435 32.435C28.8718 35.9982 24.0391 38 19 38C13.9609 38 9.12816 35.9982 5.56497 32.435C2.00178 28.8718 0 24.0391 0 19C0 13.9609 2.00178 9.12816 5.56497 5.56497C9.12816 2.00178 13.9609 0 19 0C24.0391 0 28.8718 2.00178 32.435 5.56497C35.9982 9.12816 38 13.9609 38 19ZM10.6875 17.8125C10.3726 17.8125 10.0705 17.9376 9.84781 18.1603C9.62511 18.383 9.5 18.6851 9.5 19C9.5 19.3149 9.62511 19.617 9.84781 19.8397C10.0705 20.0624 10.3726 20.1875 10.6875 20.1875H24.4459L19.3468 25.2843C19.2363 25.3947 19.1488 25.5257 19.089 25.67C19.0293 25.8142 18.9985 25.9689 18.9985 26.125C18.9985 26.2811 19.0293 26.4358 19.089 26.58C19.1488 26.7243 19.2363 26.8553 19.3468 26.9657C19.4572 27.0762 19.5882 27.1637 19.7325 27.2235C19.8767 27.2832 20.0314 27.314 20.1875 27.314C20.3436 27.314 20.4983 27.2832 20.6425 27.2235C20.7868 27.1637 20.9178 27.0762 21.0282 26.9657L28.1532 19.8407C28.2638 19.7304 28.3516 19.5994 28.4114 19.4551C28.4713 19.3109 28.5021 19.1562 28.5021 19C28.5021 18.8438 28.4713 18.6891 28.4114 18.5449C28.3516 18.4006 28.2638 18.2696 28.1532 18.1593L21.0282 11.0343C20.9178 10.9238 20.7868 10.8363 20.6425 10.7765C20.4983 10.7168 20.3436 10.686 20.1875 10.686C20.0314 10.686 19.8767 10.7168 19.7325 10.7765C19.5882 10.8363 19.4572 10.9238 19.3468 11.0343C19.2363 11.1447 19.1488 11.2757 19.089 11.42C19.0293 11.5642 18.9985 11.7189 18.9985 11.875C18.9985 12.0311 19.0293 12.1858 19.089 12.33C19.1488 12.4743 19.2363 12.6053 19.3468 12.7157L24.4459 17.8125H10.6875Z" fill="black"/>
</svg>
