<svg width="30" height="30" viewBox="0 0 30 30" fill="none" xmlns="http://www.w3.org/2000/svg">
<path d="M28.1016 23.4209L23.3505 18.6698L19.6962 17.1601C20.913 15.4297 21.5648 13.3654 21.5625 11.25C21.5625 5.56365 16.9363 0.9375 11.25 0.9375C5.56365 0.9375 0.9375 5.56365 0.9375 11.25C0.9375 16.9363 5.56365 21.5625 11.25 21.5625C13.3838 21.5649 15.4652 20.9018 17.2042 19.6654L18.7101 23.3099L23.4609 28.0612C23.7656 28.3659 24.1273 28.6076 24.5255 28.7725C24.9236 28.9374 25.3502 29.0223 25.7811 29.0223C26.2121 29.0224 26.6387 28.9375 27.0369 28.7726C27.435 28.6077 27.7967 28.366 28.1014 28.0613C28.4061 27.7566 28.6478 27.3949 28.8127 26.9968C28.9777 26.5987 29.0626 26.172 29.0626 25.7411C29.0626 25.3102 28.9777 24.8835 28.8128 24.4854C28.6479 24.0873 28.4063 23.7256 28.1016 23.4209ZM2.8125 11.25C2.8125 6.59766 6.59766 2.8125 11.25 2.8125C15.9023 2.8125 19.6875 6.59766 19.6875 11.25C19.6875 15.9023 15.9023 19.6875 11.25 19.6875C6.59766 19.6875 2.8125 15.9023 2.8125 11.25ZM26.7756 26.7354C26.5117 26.9987 26.1541 27.1466 25.7813 27.1466C25.4084 27.1466 25.0508 26.9987 24.7869 26.7354L20.3002 22.2487L18.9002 18.86L22.2891 20.26L26.7758 24.7467C27.0391 25.0106 27.1869 25.3682 27.1869 25.741C27.1869 26.1139 27.039 26.4715 26.7756 26.7354Z" fill="black"/>
</svg>
